<?xml version="1.0"?>
<svg width="1024" height="703"
     xmlns="http://www.w3.org/2000/svg"
     shape-rendering="crispEdges">
<polygon points="511,334 509,374 520,334" style="fill:rgb(122,110,100)"/>
<polygon points="509,374 529,373 520,334" style="fill:rgb(162,148,139)"/>
<polygon points="511,334 497,377 509,374" style="fill:rgb(99,90,84)"/>
<polygon points="509,374 505,440 529,373" style="fill:rgb(161,149,139)"/>
<polygon points="520,334 494,320 511,334" style="fill:rgb(143,129,116)"/>
<polygon points="511,334 469,331 497,377" style="fill:rgb(44,41,41)"/>
<polygon points="529,373 545,325 520,334" style="fill:rgb(181,173,166)"/>
<polygon points="520,334 527,288 494,320" style="fill:rgb(172,163,155)"/>
<polygon points="494,320 469,331 511,334" style="fill:rgb(103,88,75)"/>
<polygon points="451,348 462,383 497,377" style="fill:rgb(56,54,57)"/>
<polygon points="497,377 505,440 509,374" style="fill:rgb(126,110,98)"/>
<polygon points="469,331 451,348 497,377" style="fill:rgb(41,38,38)"/>
<polygon points="545,325 527,288 520,334" style="fill:rgb(190,184,175)"/>
<polygon points="494,320 467,286 469,331" style="fill:rgb(144,128,116)"/>
<polygon points="462,383 481,422 497,377" style="fill:rgb(97,87,82)"/>
<polygon points="527,288 467,286 494,320" style="fill:rgb(176,167,156)"/>
<polygon points="469,331 417,331 451,348" style="fill:rgb(100,88,79)"/>
<polygon points="481,422 505,440 497,377" style="fill:rgb(112,98,86)"/>
<polygon points="417,331 418,352 451,348" style="fill:rgb(111,101,89)"/>
<polygon points="451,348 418,352 462,383" style="fill:rgb(93,81,71)"/>
<polygon points="462,383 441,486 481,422" style="fill:rgb(109,96,85)"/>
<polygon points="410,315 417,331 469,331" style="fill:rgb(131,119,106)"/>
<polygon points="527,288 470,259 467,286" style="fill:rgb(197,189,180)"/>
<polygon points="467,286 410,315 469,331" style="fill:rgb(143,128,115)"/>
<polygon points="422,278 410,315 467,286" style="fill:rgb(164,154,140)"/>
<polygon points="417,331 334,345 418,352" style="fill:rgb(114,103,86)"/>
<polygon points="505,440 565,461 529,373" style="fill:rgb(191,184,179)"/>
<polygon points="641,389 625,300 545,325" style="fill:rgb(211,203,198)"/>
<polygon points="431,250 422,278 467,286" style="fill:rgb(162,152,137)"/>
<polygon points="641,389 545,325 529,373" style="fill:rgb(212,205,202)"/>
<polygon points="545,325 625,300 527,288" style="fill:rgb(213,208,200)"/>
<polygon points="527,288 517,166 470,259" style="fill:rgb(208,201,192)"/>
<polygon points="565,461 603,448 529,373" style="fill:rgb(207,201,197)"/>
<polygon points="603,448 641,389 529,373" style="fill:rgb(218,214,212)"/>
<polygon points="565,461 605,454 603,448" style="fill:rgb(154,153,155)"/>
<polygon points="643,456 665,413 641,389" style="fill:rgb(196,190,184)"/>
<polygon points="470,259 431,250 467,286" style="fill:rgb(180,170,158)"/>
<polygon points="422,278 375,296 410,315" style="fill:rgb(152,141,127)"/>
<polygon points="541,489 551,485 565,461" style="fill:rgb(153,153,154)"/>
<polygon points="565,461 586,478 605,454" style="fill:rgb(105,115,132)"/>
<polygon points="541,489 565,461 505,440" style="fill:rgb(193,187,181)"/>
<polygon points="478,507 541,489 505,440" style="fill:rgb(187,183,177)"/>
<polygon points="441,486 505,440 481,422" style="fill:rgb(138,126,115)"/>
<polygon points="655,373 645,309 625,300" style="fill:rgb(153,144,134)"/>
<polygon points="666,372 655,373 665,413" style="fill:rgb(147,133,119)"/>
<polygon points="641,389 655,373 625,300" style="fill:rgb(183,171,161)"/>
<polygon points="551,485 586,478 565,461" style="fill:rgb(91,101,115)"/>
<polygon points="546,519 586,478 551,485" style="fill:rgb(63,73,85)"/>
<polygon points="377,495 441,486 359,479" style="fill:rgb(116,106,89)"/>
<polygon points="359,479 441,486 462,383" style="fill:rgb(111,100,85)"/>
<polygon points="665,413 655,373 641,389" style="fill:rgb(185,174,166)"/>
<polygon points="655,373 666,372 645,309" style="fill:rgb(115,104,98)"/>
<polygon points="367,271 375,296 422,278" style="fill:rgb(132,122,106)"/>
<polygon points="410,315 334,345 417,331" style="fill:rgb(139,127,111)"/>
<polygon points="700,278 655,292 727,322" style="fill:rgb(156,143,130)"/>
<polygon points="645,309 655,292 625,300" style="fill:rgb(161,155,144)"/>
<polygon points="625,300 630,249 527,288" style="fill:rgb(217,212,206)"/>
<polygon points="470,259 415,180 431,250" style="fill:rgb(194,185,172)"/>
<polygon points="649,274 630,249 625,300" style="fill:rgb(206,200,193)"/>
<polygon points="655,292 649,274 625,300" style="fill:rgb(169,161,151)"/>
<polygon points="586,478 620,471 605,454" style="fill:rgb(94,105,125)"/>
<polygon points="605,454 643,456 603,448" style="fill:rgb(172,169,168)"/>
<polygon points="623,484 620,471 586,478" style="fill:rgb(50,63,75)"/>
<polygon points="441,486 478,507 505,440" style="fill:rgb(162,155,144)"/>
<polygon points="541,489 546,519 551,485" style="fill:rgb(78,84,99)"/>
<polygon points="643,456 641,389 603,448" style="fill:rgb(210,205,200)"/>
<polygon points="620,471 643,456 605,454" style="fill:rgb(118,124,140)"/>
<polygon points="504,541 546,519 541,489" style="fill:rgb(152,148,142)"/>
<polygon points="604,517 623,484 586,478" style="fill:rgb(31,32,37)"/>
<polygon points="620,471 645,480 643,456" style="fill:rgb(89,101,122)"/>
<polygon points="431,250 367,271 422,278" style="fill:rgb(166,155,141)"/>
<polygon points="709,145 599,205 630,249" style="fill:rgb(207,200,190)"/>
<polygon points="630,249 599,205 527,288" style="fill:rgb(205,196,187)"/>
<polygon points="665,413 687,399 666,372" style="fill:rgb(119,104,93)"/>
<polygon points="720,343 655,292 645,309" style="fill:rgb(82,72,64)"/>
<polygon points="722,447 687,399 665,413" style="fill:rgb(122,109,96)"/>
<polygon points="694,470 665,413 643,456" style="fill:rgb(195,191,186)"/>
<polygon points="623,522 645,480 623,484" style="fill:rgb(19,12,16)"/>
<polygon points="623,484 645,480 620,471" style="fill:rgb(51,60,72)"/>
<polygon points="315,327 334,345 375,296" style="fill:rgb(148,133,113)"/>
<polygon points="375,296 334,345 410,315" style="fill:rgb(131,118,101)"/>
<polygon points="441,486 453,528 478,507" style="fill:rgb(134,125,109)"/>
<polygon points="478,507 504,541 541,489" style="fill:rgb(159,153,142)"/>
<polygon points="422,519 453,528 441,486" style="fill:rgb(119,109,90)"/>
<polygon points="546,519 604,517 586,478" style="fill:rgb(19,15,20)"/>
<polygon points="573,558 604,517 546,519" style="fill:rgb(46,55,69)"/>
<polygon points="453,528 504,541 478,507" style="fill:rgb(123,113,93)"/>
<polygon points="599,205 517,166 527,288" style="fill:rgb(200,189,176)"/>
<polygon points="431,250 360,221 367,271" style="fill:rgb(186,176,162)"/>
<polygon points="377,495 422,519 441,486" style="fill:rgb(97,88,72)"/>
<polygon points="359,479 462,383 418,352" style="fill:rgb(117,105,92)"/>
<polygon points="626,545 623,522 604,517" style="fill:rgb(26,25,27)"/>
<polygon points="604,517 623,522 623,484" style="fill:rgb(23,22,24)"/>
<polygon points="655,292 700,278 649,274" style="fill:rgb(180,169,156)"/>
<polygon points="649,274 692,255 630,249" style="fill:rgb(218,216,211)"/>
<polygon points="720,343 645,309 666,372" style="fill:rgb(59,58,60)"/>
<polygon points="309,432 359,479 418,352" style="fill:rgb(103,92,73)"/>
<polygon points="517,166 415,180 470,259" style="fill:rgb(206,199,187)"/>
<polygon points="667,514 670,484 645,480" style="fill:rgb(72,81,91)"/>
<polygon points="645,480 670,484 643,456" style="fill:rgb(96,105,120)"/>
<polygon points="367,271 315,327 375,296" style="fill:rgb(165,152,134)"/>
<polygon points="334,345 309,432 418,352" style="fill:rgb(122,109,92)"/>
<polygon points="312,260 315,327 367,271" style="fill:rgb(187,178,162)"/>
<polygon points="700,278 692,255 649,274" style="fill:rgb(201,193,181)"/>
<polygon points="415,180 360,221 431,250" style="fill:rgb(193,184,169)"/>
<polygon points="749,440 720,343 687,399" style="fill:rgb(119,107,95)"/>
<polygon points="687,399 720,343 666,372" style="fill:rgb(97,88,84)"/>
<polygon points="510,573 560,561 504,541" style="fill:rgb(151,149,144)"/>
<polygon points="504,541 560,561 546,519" style="fill:rgb(153,152,152)"/>
<polygon points="454,560 504,541 453,528" style="fill:rgb(117,106,87)"/>
<polygon points="560,561 573,558 546,519" style="fill:rgb(85,83,83)"/>
<polygon points="705,511 694,470 670,484" style="fill:rgb(177,172,159)"/>
<polygon points="670,484 694,470 643,456" style="fill:rgb(180,175,167)"/>
<polygon points="760,313 727,322 720,343" style="fill:rgb(121,110,95)"/>
<polygon points="720,343 727,322 655,292" style="fill:rgb(122,108,99)"/>
<polygon points="700,278 724,251 692,255" style="fill:rgb(184,175,162)"/>
<polygon points="397,172 355,212 360,221" style="fill:rgb(143,134,115)"/>
<polygon points="360,221 312,260 367,271" style="fill:rgb(178,169,153)"/>
<polygon points="413,584 454,560 422,519" style="fill:rgb(68,60,46)"/>
<polygon points="422,519 454,560 453,528" style="fill:rgb(89,79,62)"/>
<polygon points="413,158 397,172 415,180" style="fill:rgb(157,145,125)"/>
<polygon points="415,180 397,172 360,221" style="fill:rgb(175,165,148)"/>
<polygon points="454,560 510,573 504,541" style="fill:rgb(107,97,78)"/>
<polygon points="560,561 557,597 573,558" style="fill:rgb(93,93,91)"/>
<polygon points="626,545 667,514 623,522" style="fill:rgb(62,77,98)"/>
<polygon points="623,522 667,514 645,480" style="fill:rgb(23,22,28)"/>
<polygon points="573,558 626,545 604,517" style="fill:rgb(25,25,30)"/>
<polygon points="277,407 309,432 334,345" style="fill:rgb(141,129,111)"/>
<polygon points="444,140 413,158 415,180" style="fill:rgb(177,164,145)"/>
<polygon points="355,212 312,260 360,221" style="fill:rgb(143,134,115)"/>
<polygon points="315,327 277,407 334,345" style="fill:rgb(157,143,126)"/>
<polygon points="397,172 350,201 355,212" style="fill:rgb(96,89,69)"/>
<polygon points="355,212 350,201 312,260" style="fill:rgb(96,85,64)"/>
<polygon points="342,189 350,201 397,172" style="fill:rgb(57,50,35)"/>
<polygon points="517,166 444,140 415,180" style="fill:rgb(203,192,175)"/>
<polygon points="731,467 722,447 694,470" style="fill:rgb(146,138,121)"/>
<polygon points="694,470 722,447 665,413" style="fill:rgb(159,149,138)"/>
<polygon points="760,313 724,251 700,278" style="fill:rgb(165,155,140)"/>
<polygon points="658,107 607,97 599,205" style="fill:rgb(199,193,179)"/>
<polygon points="560,107 512,110 517,166" style="fill:rgb(196,190,172)"/>
<polygon points="393,129 399,150 413,158" style="fill:rgb(115,97,74)"/>
<polygon points="413,158 399,150 397,172" style="fill:rgb(93,80,59)"/>
<polygon points="292,269 283,301 312,260" style="fill:rgb(129,123,113)"/>
<polygon points="312,260 283,301 315,327" style="fill:rgb(175,167,155)"/>
<polygon points="271,271 240,225 253,265" style="fill:rgb(97,95,83)"/>
<polygon points="334,139 342,189 397,172" style="fill:rgb(48,40,30)"/>
<polygon points="350,201 342,189 312,260" style="fill:rgb(76,65,48)"/>
<polygon points="467,674 529,597 510,573" style="fill:rgb(91,81,69)"/>
<polygon points="510,573 529,597 560,561" style="fill:rgb(128,126,122)"/>
<polygon points="615,615 643,564 626,545" style="fill:rgb(62,64,64)"/>
<polygon points="705,511 731,467 694,470" style="fill:rgb(148,142,123)"/>
<polygon points="812,389 760,313 720,343" style="fill:rgb(122,110,93)"/>
<polygon points="705,511 670,484 667,514" style="fill:rgb(154,149,135)"/>
<polygon points="255,319 273,328 283,301" style="fill:rgb(132,126,116)"/>
<polygon points="283,301 273,328 315,327" style="fill:rgb(179,171,159)"/>
<polygon points="273,328 277,407 315,327" style="fill:rgb(174,165,151)"/>
<polygon points="317,501 377,495 359,479" style="fill:rgb(123,114,97)"/>
<polygon points="340,544 387,565 377,495" style="fill:rgb(124,114,98)"/>
<polygon points="560,107 517,166 599,205" style="fill:rgb(192,177,154)"/>
<polygon points="517,166 464,107 444,140" style="fill:rgb(198,189,171)"/>
<polygon points="444,140 393,129 413,158" style="fill:rgb(163,148,128)"/>
<polygon points="615,615 626,545 573,558" style="fill:rgb(47,51,56)"/>
<polygon points="626,545 643,564 667,514" style="fill:rgb(38,41,47)"/>
<polygon points="685,567 705,511 667,514" style="fill:rgb(151,147,131)"/>
<polygon points="529,597 557,597 560,561" style="fill:rgb(107,105,97)"/>
<polygon points="317,501 359,479 309,432" style="fill:rgb(120,110,91)"/>
<polygon points="377,495 387,565 422,519" style="fill:rgb(107,97,82)"/>
<polygon points="454,560 467,674 510,573" style="fill:rgb(105,97,84)"/>
<polygon points="279,474 317,501 309,432" style="fill:rgb(132,122,103)"/>
<polygon points="749,440 687,399 722,447" style="fill:rgb(100,90,72)"/>
<polygon points="727,322 760,313 700,278" style="fill:rgb(146,134,118)"/>
<polygon points="788,522 749,440 731,467" style="fill:rgb(124,114,93)"/>
<polygon points="731,467 749,440 722,447" style="fill:rgb(115,106,86)"/>
<polygon points="573,99 607,97 588,95" style="fill:rgb(77,91,74)"/>
<polygon points="387,565 413,584 422,519" style="fill:rgb(98,89,73)"/>
<polygon points="478,99 464,107 512,110" style="fill:rgb(136,150,127)"/>
<polygon points="512,110 464,107 517,166" style="fill:rgb(196,192,177)"/>
<polygon points="560,107 511,101 512,110" style="fill:rgb(136,152,129)"/>
<polygon points="643,564 654,567 667,514" style="fill:rgb(91,92,88)"/>
<polygon points="665,596 654,567 643,564" style="fill:rgb(110,110,104)"/>
<polygon points="400,112 393,129 444,140" style="fill:rgb(179,171,158)"/>
<polygon points="399,150 334,139 397,172" style="fill:rgb(42,32,21)"/>
<polygon points="277,407 273,439 309,432" style="fill:rgb(155,142,123)"/>
<polygon points="242,380 273,439 277,407" style="fill:rgb(156,148,137)"/>
<polygon points="511,101 478,99 512,110" style="fill:rgb(108,118,99)"/>
<polygon points="464,107 438,107 444,140" style="fill:rgb(188,188,175)"/>
<polygon points="271,271 246,212 240,225" style="fill:rgb(109,101,83)"/>
<polygon points="292,269 271,271 283,301" style="fill:rgb(102,90,73)"/>
<polygon points="273,328 242,380 277,407" style="fill:rgb(160,153,144)"/>
<polygon points="256,278 271,271 253,265" style="fill:rgb(109,105,96)"/>
<polygon points="317,501 340,544 377,495" style="fill:rgb(136,127,111)"/>
<polygon points="387,565 358,582 413,584" style="fill:rgb(85,76,58)"/>
<polygon points="324,577 340,544 279,563" style="fill:rgb(104,94,80)"/>
<polygon points="432,102 438,107 464,107" style="fill:rgb(111,121,99)"/>
<polygon points="573,99 560,107 607,97" style="fill:rgb(116,131,108)"/>
<polygon points="560,107 573,99 511,101" style="fill:rgb(91,106,83)"/>
<polygon points="511,101 318,45 478,99" style="fill:rgb(255,255,255)"/>
<polygon points="256,278 255,319 283,301" style="fill:rgb(133,125,116)"/>
<polygon points="273,439 279,474 309,432" style="fill:rgb(149,139,122)"/>
<polygon points="478,99 432,102 464,107" style="fill:rgb(105,115,95)"/>
<polygon points="438,107 400,112 444,140" style="fill:rgb(186,183,170)"/>
<polygon points="420,100 400,112 438,107" style="fill:rgb(118,129,106)"/>
<polygon points="393,129 334,139 399,150" style="fill:rgb(80,65,48)"/>
<polygon points="607,97 560,107 599,205" style="fill:rgb(198,191,174)"/>
<polygon points="573,99 588,95 511,101" style="fill:rgb(249,249,249)"/>
<polygon points="292,269 246,212 271,271" style="fill:rgb(76,63,44)"/>
<polygon points="271,271 256,278 283,301" style="fill:rgb(113,101,88)"/>
<polygon points="432,102 420,100 438,107" style="fill:rgb(66,76,53)"/>
<polygon points="478,99 420,100 432,102" style="fill:rgb(227,228,226)"/>
<polygon points="387,99 370,81 367,97" style="fill:rgb(148,148,139)"/>
<polygon points="665,596 685,567 654,567" style="fill:rgb(122,121,112)"/>
<polygon points="654,567 685,567 667,514" style="fill:rgb(151,151,146)"/>
<polygon points="705,511 740,511 731,467" style="fill:rgb(126,117,96)"/>
<polygon points="420,100 405,105 400,112" style="fill:rgb(85,90,76)"/>
<polygon points="306,162 312,260 342,189" style="fill:rgb(43,34,26)"/>
<polygon points="709,145 630,249 692,255" style="fill:rgb(197,189,177)"/>
<polygon points="529,597 576,621 557,597" style="fill:rgb(103,96,82)"/>
<polygon points="557,597 615,615 573,558" style="fill:rgb(63,64,65)"/>
<polygon points="547,673 576,621 529,597" style="fill:rgb(57,44,32)"/>
<polygon points="717,573 740,511 705,511" style="fill:rgb(104,94,72)"/>
<polygon points="239,356 273,328 255,319" style="fill:rgb(154,148,144)"/>
<polygon points="239,356 242,380 273,328" style="fill:rgb(144,138,134)"/>
<polygon points="273,439 253,480 279,474" style="fill:rgb(110,100,86)"/>
<polygon points="830,501 783,418 749,440" style="fill:rgb(129,119,99)"/>
<polygon points="749,440 783,418 720,343" style="fill:rgb(130,119,104)"/>
<polygon points="217,344 239,356 255,319" style="fill:rgb(197,195,197)"/>
<polygon points="324,577 358,582 340,544" style="fill:rgb(83,74,57)"/>
<polygon points="340,544 358,582 387,565" style="fill:rgb(122,113,96)"/>
<polygon points="467,674 547,673 529,597" style="fill:rgb(73,60,47)"/>
<polygon points="334,139 393,129 335,115" style="fill:rgb(64,53,36)"/>
<polygon points="256,278 217,344 255,319" style="fill:rgb(158,155,155)"/>
<polygon points="576,621 615,615 557,597" style="fill:rgb(108,105,94)"/>
<polygon points="838,367 786,279 760,313" style="fill:rgb(157,142,119)"/>
<polygon points="760,313 786,279 724,251" style="fill:rgb(149,136,117)"/>
<polygon points="729,161 709,145 692,255" style="fill:rgb(189,179,164)"/>
<polygon points="387,99 393,129 400,112" style="fill:rgb(164,158,144)"/>
<polygon points="615,615 665,596 643,564" style="fill:rgb(90,88,80)"/>
<polygon points="685,567 717,573 705,511" style="fill:rgb(115,109,91)"/>
<polygon points="334,139 306,162 342,189" style="fill:rgb(28,21,17)"/>
<polygon points="729,161 692,255 724,251" style="fill:rgb(185,174,156)"/>
<polygon points="709,145 658,107 599,205" style="fill:rgb(203,196,181)"/>
<polygon points="405,105 387,99 400,112" style="fill:rgb(111,114,101)"/>
<polygon points="420,100 387,99 405,105" style="fill:rgb(248,248,248)"/>
<polygon points="387,99 420,100 370,81" style="fill:rgb(252,252,252)"/>
<polygon points="765,195 729,161 724,251" style="fill:rgb(181,170,151)"/>
<polygon points="576,621 622,622 615,615" style="fill:rgb(82,75,59)"/>
<polygon points="615,615 622,622 665,596" style="fill:rgb(81,74,56)"/>
<polygon points="679,113 658,107 709,145" style="fill:rgb(187,184,172)"/>
<polygon points="679,107 655,101 658,107" style="fill:rgb(90,99,86)"/>
<polygon points="658,107 642,93 607,97" style="fill:rgb(128,143,128)"/>
<polygon points="607,97 642,93 588,95" style="fill:rgb(75,86,72)"/>
<polygon points="655,101 642,93 658,107" style="fill:rgb(71,86,69)"/>
<polygon points="370,81 420,100 478,99" style="fill:rgb(254,255,255)"/>
<polygon points="217,451 253,480 273,439" style="fill:rgb(136,129,119)"/>
<polygon points="263,554 279,563 317,501" style="fill:rgb(107,96,83)"/>
<polygon points="217,451 273,439 242,380" style="fill:rgb(141,135,126)"/>
<polygon points="679,107 679,113 728,99" style="fill:rgb(126,132,121)"/>
<polygon points="655,101 679,107 642,93" style="fill:rgb(206,208,206)"/>
<polygon points="279,563 340,544 317,501" style="fill:rgb(103,93,78)"/>
<polygon points="358,582 357,622 413,584" style="fill:rgb(81,72,55)"/>
<polygon points="810,245 765,195 724,251" style="fill:rgb(177,165,147)"/>
<polygon points="732,106 679,113 709,145" style="fill:rgb(182,177,167)"/>
<polygon points="744,118 709,145 729,161" style="fill:rgb(106,91,69)"/>
<polygon points="679,113 679,107 658,107" style="fill:rgb(122,133,118)"/>
<polygon points="370,81 478,99 331,56" style="fill:rgb(254,254,254)"/>
<polygon points="387,99 367,97 393,129" style="fill:rgb(155,142,126)"/>
<polygon points="334,139 299,108 306,162" style="fill:rgb(25,18,15)"/>
<polygon points="703,621 685,567 665,596" style="fill:rgb(96,88,73)"/>
<polygon points="703,621 717,573 685,567" style="fill:rgb(120,114,100)"/>
<polygon points="840,425 812,389 783,418" style="fill:rgb(132,121,98)"/>
<polygon points="788,522 731,467 740,511" style="fill:rgb(102,91,67)"/>
<polygon points="783,418 812,389 720,343" style="fill:rgb(143,132,116)"/>
<polygon points="203,343 217,344 256,278" style="fill:rgb(98,98,98)"/>
<polygon points="239,356 216,385 242,380" style="fill:rgb(167,161,157)"/>
<polygon points="367,97 335,115 393,129" style="fill:rgb(102,88,67)"/>
<polygon points="765,195 754,172 729,161" style="fill:rgb(138,132,116)"/>
<polygon points="217,344 216,385 239,356" style="fill:rgb(196,194,194)"/>
<polygon points="246,212 292,269 312,260" style="fill:rgb(49,41,32)"/>
<polygon points="253,265 203,343 256,278" style="fill:rgb(91,91,90)"/>
<polygon points="246,212 312,260 306,162" style="fill:rgb(73,64,50)"/>
<polygon points="278,156 246,212 306,162" style="fill:rgb(67,61,47)"/>
<polygon points="299,108 278,156 306,162" style="fill:rgb(46,37,25)"/>
<polygon points="367,97 311,89 335,115" style="fill:rgb(125,114,97)"/>
<polygon points="335,115 299,108 334,139" style="fill:rgb(49,42,26)"/>
<polygon points="331,56 478,99 318,45" style="fill:rgb(254,254,254)"/>
<polygon points="324,577 357,622 358,582" style="fill:rgb(77,68,53)"/>
<polygon points="576,621 569,672 622,622" style="fill:rgb(47,33,22)"/>
<polygon points="240,225 203,343 253,265" style="fill:rgb(251,251,251)"/>
<polygon points="217,344 199,373 216,385" style="fill:rgb(194,195,198)"/>
<polygon points="216,385 217,451 242,380" style="fill:rgb(164,159,155)"/>
<polygon points="263,554 317,501 279,474" style="fill:rgb(98,88,72)"/>
<polygon points="324,577 310,597 357,622" style="fill:rgb(95,88,74)"/>
<polygon points="185,449 217,451 216,385" style="fill:rgb(175,170,165)"/>
<polygon points="786,279 810,245 724,251" style="fill:rgb(168,153,132)"/>
<polygon points="765,195 796,205 754,172" style="fill:rgb(99,91,74)"/>
<polygon points="839,282 810,245 786,279" style="fill:rgb(173,164,149)"/>
<polygon points="263,554 279,474 253,480" style="fill:rgb(110,101,88)"/>
<polygon points="195,362 200,352 189,368" style="fill:rgb(255,255,255)"/>
<polygon points="203,343 200,352 217,344" style="fill:rgb(88,88,89)"/>
<polygon points="246,212 232,213 240,225" style="fill:rgb(98,94,82)"/>
<polygon points="240,225 232,213 203,343" style="fill:rgb(254,254,254)"/>
<polygon points="233,164 232,213 246,212" style="fill:rgb(121,114,97)"/>
<polygon points="200,352 199,373 217,344" style="fill:rgb(112,112,113)"/>
<polygon points="810,245 796,205 765,195" style="fill:rgb(113,104,87)"/>
<polygon points="754,172 744,118 729,161" style="fill:rgb(65,55,39)"/>
<polygon points="279,563 310,597 324,577" style="fill:rgb(126,119,107)"/>
<polygon points="750,587 788,522 740,511" style="fill:rgb(106,94,73)"/>
<polygon points="467,674 454,560 453,674" style="fill:rgb(86,78,66)"/>
<polygon points="664,674 703,621 665,596" style="fill:rgb(84,72,54)"/>
<polygon points="200,352 195,362 199,373" style="fill:rgb(112,112,112)"/>
<polygon points="199,373 185,449 216,385" style="fill:rgb(195,194,194)"/>
<polygon points="189,368 200,352 203,343" style="fill:rgb(255,255,255)"/>
<polygon points="389,665 381,646 356,671" style="fill:rgb(150,147,146)"/>
<polygon points="357,622 381,646 413,584" style="fill:rgb(87,77,64)"/>
<polygon points="233,526 263,554 253,480" style="fill:rgb(119,110,99)"/>
<polygon points="279,563 266,597 310,597" style="fill:rgb(147,138,130)"/>
<polygon points="547,673 569,672 576,621" style="fill:rgb(57,44,32)"/>
<polygon points="840,425 838,367 812,389" style="fill:rgb(141,127,104)"/>
<polygon points="812,389 838,367 760,313" style="fill:rgb(125,111,89)"/>
<polygon points="453,674 454,560 413,584" style="fill:rgb(71,64,50)"/>
<polygon points="547,673 568,674 569,672" style="fill:rgb(161,161,161)"/>
<polygon points="664,674 665,596 622,622" style="fill:rgb(64,52,36)"/>
<polygon points="510,703 568,674 547,673" style="fill:rgb(255,255,255)"/>
<polygon points="381,646 433,669 413,584" style="fill:rgb(71,62,50)"/>
<polygon points="433,669 453,674 413,584" style="fill:rgb(71,63,48)"/>
<polygon points="664,674 622,622 569,672" style="fill:rgb(53,39,26)"/>
<polygon points="717,573 750,587 740,511" style="fill:rgb(85,76,57)"/>
<polygon points="0,0 189,368 203,343" style="fill:rgb(255,255,255)"/>
<polygon points="195,362 189,368 199,373" style="fill:rgb(156,157,155)"/>
<polygon points="311,89 299,108 335,115" style="fill:rgb(78,69,50)"/>
<polygon points="278,156 233,164 246,212" style="fill:rgb(85,77,59)"/>
<polygon points="778,117 744,118 754,172" style="fill:rgb(57,48,34)"/>
<polygon points="679,107 739,88 642,93" style="fill:rgb(254,254,254)"/>
<polygon points="744,118 732,106 709,145" style="fill:rgb(141,127,107)"/>
<polygon points="703,621 750,587 717,573" style="fill:rgb(89,80,61)"/>
<polygon points="162,522 233,526 217,451" style="fill:rgb(142,136,130)"/>
<polygon points="217,451 233,526 253,480" style="fill:rgb(127,119,110)"/>
<polygon points="838,367 839,282 786,279" style="fill:rgb(183,172,155)"/>
<polygon points="810,245 814,203 796,205" style="fill:rgb(45,37,29)"/>
<polygon points="830,501 840,425 783,418" style="fill:rgb(113,102,76)"/>
<polygon points="863,271 841,263 839,282" style="fill:rgb(114,106,85)"/>
<polygon points="739,88 728,99 732,106" style="fill:rgb(123,126,118)"/>
<polygon points="732,106 728,99 679,113" style="fill:rgb(144,149,140)"/>
<polygon points="867,216 814,203 810,245" style="fill:rgb(69,60,46)"/>
<polygon points="796,205 778,117 754,172" style="fill:rgb(60,54,41)"/>
<polygon points="331,56 311,89 367,97" style="fill:rgb(152,138,124)"/>
<polygon points="299,108 264,127 278,156" style="fill:rgb(74,65,48)"/>
<polygon points="381,646 389,665 433,669" style="fill:rgb(94,89,85)"/>
<polygon points="356,671 510,703 453,674" style="fill:rgb(255,255,255)"/>
<polygon points="356,671 381,646 357,622" style="fill:rgb(130,122,118)"/>
<polygon points="858,292 839,282 863,332" style="fill:rgb(120,125,111)"/>
<polygon points="839,282 841,263 810,245" style="fill:rgb(95,89,73)"/>
<polygon points="268,94 264,127 299,108" style="fill:rgb(89,82,66)"/>
<polygon points="264,127 233,164 278,156" style="fill:rgb(104,95,77)"/>
<polygon points="232,213 223,166 203,343" style="fill:rgb(253,253,253)"/>
<polygon points="159,446 185,449 199,373" style="fill:rgb(192,193,196)"/>
<polygon points="795,586 808,538 788,522" style="fill:rgb(117,108,89)"/>
<polygon points="788,522 830,501 749,440" style="fill:rgb(138,130,111)"/>
<polygon points="808,538 830,501 788,522" style="fill:rgb(145,138,122)"/>
<polygon points="749,93 732,106 744,118" style="fill:rgb(152,141,122)"/>
<polygon points="749,93 739,88 732,106" style="fill:rgb(166,169,160)"/>
<polygon points="728,99 739,88 679,107" style="fill:rgb(236,236,235)"/>
<polygon points="318,45 511,101 588,95" style="fill:rgb(255,255,255)"/>
<polygon points="226,124 223,166 233,164" style="fill:rgb(213,212,209)"/>
<polygon points="233,164 223,166 232,213" style="fill:rgb(183,181,177)"/>
<polygon points="263,554 266,597 279,563" style="fill:rgb(108,99,87)"/>
<polygon points="332,666 356,671 357,622" style="fill:rgb(116,105,97)"/>
<polygon points="210,593 266,597 263,554" style="fill:rgb(117,103,91)"/>
<polygon points="202,579 263,554 233,526" style="fill:rgb(142,133,124)"/>
<polygon points="863,332 839,282 838,367" style="fill:rgb(183,178,167)"/>
<polygon points="841,263 867,216 810,245" style="fill:rgb(43,35,28)"/>
<polygon points="863,332 838,367 869,360" style="fill:rgb(177,176,164)"/>
<polygon points="869,360 838,367 884,421" style="fill:rgb(176,177,167)"/>
<polygon points="356,671 453,674 433,669" style="fill:rgb(250,250,250)"/>
<polygon points="453,674 510,703 467,674" style="fill:rgb(255,255,255)"/>
<polygon points="467,674 510,703 547,673" style="fill:rgb(255,255,255)"/>
<polygon points="706,670 731,632 703,621" style="fill:rgb(81,72,55)"/>
<polygon points="771,93 749,93 744,118" style="fill:rgb(125,108,86)"/>
<polygon points="268,94 239,127 264,127" style="fill:rgb(135,127,114)"/>
<polygon points="264,127 239,127 233,164" style="fill:rgb(108,99,82)"/>
<polygon points="370,81 331,56 367,97" style="fill:rgb(151,148,134)"/>
<polygon points="318,45 588,95 791,45" style="fill:rgb(255,255,255)"/>
<polygon points="703,621 731,632 750,587" style="fill:rgb(100,90,73)"/>
<polygon points="750,587 795,586 788,522" style="fill:rgb(118,108,88)"/>
<polygon points="664,674 569,672 568,674" style="fill:rgb(122,122,121)"/>
<polygon points="510,703 664,674 568,674" style="fill:rgb(255,255,255)"/>
<polygon points="874,358 869,360 884,421" style="fill:rgb(99,109,91)"/>
<polygon points="873,346 863,271 858,292" style="fill:rgb(242,243,242)"/>
<polygon points="827,96 778,117 814,203" style="fill:rgb(36,29,23)"/>
<polygon points="814,203 778,117 796,205" style="fill:rgb(44,37,29)"/>
<polygon points="332,666 357,622 310,663" style="fill:rgb(116,105,96)"/>
<polygon points="389,665 356,671 433,669" style="fill:rgb(160,159,158)"/>
<polygon points="873,346 858,292 863,332" style="fill:rgb(83,96,74)"/>
<polygon points="858,292 863,271 839,282" style="fill:rgb(99,101,83)"/>
<polygon points="869,360 873,346 863,332" style="fill:rgb(97,111,90)"/>
<polygon points="874,358 873,346 869,360" style="fill:rgb(77,90,73)"/>
<polygon points="268,94 299,108 311,89" style="fill:rgb(92,82,64)"/>
<polygon points="884,421 838,367 840,425" style="fill:rgb(176,169,156)"/>
<polygon points="280,68 268,94 311,89" style="fill:rgb(116,102,86)"/>
<polygon points="310,663 357,622 310,597" style="fill:rgb(138,129,123)"/>
<polygon points="731,632 795,586 750,587" style="fill:rgb(87,79,59)"/>
<polygon points="842,575 859,497 830,501" style="fill:rgb(133,123,105)"/>
<polygon points="882,211 864,251 863,271" style="fill:rgb(247,247,247)"/>
<polygon points="863,271 864,251 841,263" style="fill:rgb(111,108,87)"/>
<polygon points="787,67 771,93 827,96" style="fill:rgb(120,107,94)"/>
<polygon points="778,117 771,93 744,118" style="fill:rgb(78,67,49)"/>
<polygon points="749,93 787,67 739,88" style="fill:rgb(171,165,154)"/>
<polygon points="791,45 588,95 642,93" style="fill:rgb(254,254,254)"/>
<polygon points="331,56 318,45 311,89" style="fill:rgb(160,151,139)"/>
<polygon points="150,449 159,446 189,368" style="fill:rgb(90,90,91)"/>
<polygon points="189,368 159,446 199,373" style="fill:rgb(137,137,139)"/>
<polygon points="185,449 162,522 217,451" style="fill:rgb(162,157,151)"/>
<polygon points="664,674 706,670 703,621" style="fill:rgb(90,80,62)"/>
<polygon points="731,632 819,638 795,586" style="fill:rgb(78,70,51)"/>
<polygon points="746,671 706,670 664,674" style="fill:rgb(171,170,168)"/>
<polygon points="239,127 226,124 233,164" style="fill:rgb(167,160,148)"/>
<polygon points="139,462 150,449 189,368" style="fill:rgb(244,244,244)"/>
<polygon points="228,101 226,124 239,127" style="fill:rgb(158,154,143)"/>
<polygon points="228,101 239,127 268,94" style="fill:rgb(156,147,135)"/>
<polygon points="318,45 280,68 311,89" style="fill:rgb(163,151,137)"/>
<polygon points="261,664 310,663 266,597" style="fill:rgb(103,91,85)"/>
<polygon points="266,597 310,663 310,597" style="fill:rgb(130,119,112)"/>
<polygon points="332,666 261,664 356,671" style="fill:rgb(252,252,252)"/>
<polygon points="356,671 9,703 510,703" style="fill:rgb(255,255,255)"/>
<polygon points="842,575 830,501 808,538" style="fill:rgb(119,109,89)"/>
<polygon points="830,501 859,497 840,425" style="fill:rgb(134,122,101)"/>
<polygon points="892,474 884,421 840,425" style="fill:rgb(166,164,154)"/>
<polygon points="874,358 889,422 873,346" style="fill:rgb(236,237,236)"/>
<polygon points="882,211 867,216 864,251" style="fill:rgb(101,102,89)"/>
<polygon points="139,462 189,368 0,0" style="fill:rgb(255,255,255)"/>
<polygon points="159,446 149,487 185,449" style="fill:rgb(192,192,192)"/>
<polygon points="882,211 863,271 873,346" style="fill:rgb(254,254,254)"/>
<polygon points="864,251 867,216 841,263" style="fill:rgb(94,88,66)"/>
<polygon points="892,474 889,422 884,421" style="fill:rgb(107,110,100)"/>
<polygon points="884,421 889,422 874,358" style="fill:rgb(105,108,98)"/>
<polygon points="318,45 279,55 280,68" style="fill:rgb(175,165,154)"/>
<polygon points="253,71 228,101 268,94" style="fill:rgb(167,159,150)"/>
<polygon points="867,216 865,199 814,203" style="fill:rgb(64,55,38)"/>
<polygon points="253,71 268,94 280,68" style="fill:rgb(149,135,119)"/>
<polygon points="139,462 144,463 150,449" style="fill:rgb(202,203,203)"/>
<polygon points="169,554 202,579 233,526" style="fill:rgb(147,140,133)"/>
<polygon points="267,56 253,71 280,68" style="fill:rgb(164,157,147)"/>
<polygon points="318,45 282,46 279,55" style="fill:rgb(116,117,107)"/>
<polygon points="279,55 267,56 280,68" style="fill:rgb(158,151,142)"/>
<polygon points="150,449 144,463 159,446" style="fill:rgb(100,101,102)"/>
<polygon points="203,343 223,166 0,0" style="fill:rgb(255,255,255)"/>
<polygon points="202,579 210,593 263,554" style="fill:rgb(125,113,103)"/>
<polygon points="282,46 267,56 279,55" style="fill:rgb(116,116,109)"/>
<polygon points="144,463 149,487 159,446" style="fill:rgb(149,149,152)"/>
<polygon points="202,579 171,570 210,593" style="fill:rgb(128,114,106)"/>
<polygon points="149,487 162,522 185,449" style="fill:rgb(180,175,171)"/>
<polygon points="144,463 139,477 149,487" style="fill:rgb(96,96,97)"/>
<polygon points="149,487 130,521 162,522" style="fill:rgb(186,185,185)"/>
<polygon points="129,496 139,462 0,0" style="fill:rgb(255,255,255)"/>
<polygon points="706,670 746,671 731,632" style="fill:rgb(73,64,50)"/>
<polygon points="795,586 842,575 808,538" style="fill:rgb(96,86,65)"/>
<polygon points="894,703 746,671 664,674" style="fill:rgb(255,255,255)"/>
<polygon points="253,71 250,64 228,101" style="fill:rgb(98,97,87)"/>
<polygon points="267,56 250,64 253,71" style="fill:rgb(123,121,113)"/>
<polygon points="282,46 250,64 267,56" style="fill:rgb(255,255,255)"/>
<polygon points="1024,0 882,211 873,346" style="fill:rgb(255,255,255)"/>
<polygon points="867,216 882,211 865,199" style="fill:rgb(84,75,56)"/>
<polygon points="827,96 771,93 778,117" style="fill:rgb(98,88,69)"/>
<polygon points="819,638 842,575 795,586" style="fill:rgb(102,91,71)"/>
<polygon points="859,497 892,474 840,425" style="fill:rgb(156,151,138)"/>
<polygon points="896,473 892,474 894,523" style="fill:rgb(96,108,97)"/>
<polygon points="1024,0 895,145 882,211" style="fill:rgb(255,255,255)"/>
<polygon points="771,93 787,67 749,93" style="fill:rgb(136,120,102)"/>
<polygon points="739,88 791,45 642,93" style="fill:rgb(254,254,253)"/>
<polygon points="827,96 814,203 840,99" style="fill:rgb(60,52,38)"/>
<polygon points="139,462 139,477 144,463" style="fill:rgb(70,70,70)"/>
<polygon points="894,523 892,474 859,497" style="fill:rgb(165,165,155)"/>
<polygon points="892,474 896,473 889,422" style="fill:rgb(108,113,106)"/>
<polygon points="210,593 242,646 266,597" style="fill:rgb(88,71,65)"/>
<polygon points="225,650 242,646 208,638" style="fill:rgb(98,87,88)"/>
<polygon points="138,541 169,554 162,522" style="fill:rgb(167,159,152)"/>
<polygon points="162,522 169,554 233,526" style="fill:rgb(148,141,135)"/>
<polygon points="242,646 261,664 266,597" style="fill:rgb(120,111,108)"/>
<polygon points="310,663 261,664 332,666" style="fill:rgb(190,187,186)"/>
<polygon points="875,159 814,203 865,199" style="fill:rgb(94,88,70)"/>
<polygon points="136,563 171,570 169,554" style="fill:rgb(126,112,102)"/>
<polygon points="169,554 171,570 202,579" style="fill:rgb(133,121,113)"/>
<polygon points="882,211 875,159 865,199" style="fill:rgb(78,68,47)"/>
<polygon points="828,69 790,50 787,67" style="fill:rgb(164,152,137)"/>
<polygon points="787,67 790,50 739,88" style="fill:rgb(168,165,159)"/>
<polygon points="139,462 129,496 139,477" style="fill:rgb(250,250,250)"/>
<polygon points="139,477 129,496 149,487" style="fill:rgb(107,106,107)"/>
<polygon points="130,521 129,496 0,697" style="fill:rgb(255,255,255)"/>
<polygon points="875,159 840,99 814,203" style="fill:rgb(91,84,66)"/>
<polygon points="804,39 791,45 790,50" style="fill:rgb(95,97,89)"/>
<polygon points="828,69 787,67 827,96" style="fill:rgb(127,116,100)"/>
<polygon points="790,50 791,45 739,88" style="fill:rgb(96,99,95)"/>
<polygon points="842,575 894,523 859,497" style="fill:rgb(155,150,138)"/>
<polygon points="208,638 242,646 210,593" style="fill:rgb(69,54,50)"/>
<polygon points="242,646 225,650 261,664" style="fill:rgb(135,128,127)"/>
<polygon points="746,671 819,638 731,632" style="fill:rgb(75,65,48)"/>
<polygon points="882,595 899,524 894,523" style="fill:rgb(106,117,103)"/>
<polygon points="190,648 208,638 172,634" style="fill:rgb(67,56,53)"/>
<polygon points="208,638 210,593 172,634" style="fill:rgb(81,67,63)"/>
<polygon points="882,595 894,523 842,575" style="fill:rgb(155,155,143)"/>
<polygon points="894,523 899,524 896,473" style="fill:rgb(98,107,99)"/>
<polygon points="1024,0 873,346 889,422" style="fill:rgb(255,255,255)"/>
<polygon points="129,496 130,521 149,487" style="fill:rgb(159,160,162)"/>
<polygon points="130,521 138,541 162,522" style="fill:rgb(179,177,176)"/>
<polygon points="840,99 828,69 827,96" style="fill:rgb(103,96,83)"/>
<polygon points="866,92 828,69 840,99" style="fill:rgb(111,103,89)"/>
<polygon points="828,69 804,39 790,50" style="fill:rgb(169,160,148)"/>
<polygon points="791,45 804,39 318,45" style="fill:rgb(255,255,255)"/>
<polygon points="130,521 136,563 138,541" style="fill:rgb(249,249,249)"/>
<polygon points="138,541 136,563 169,554" style="fill:rgb(149,140,133)"/>
<polygon points="882,211 895,145 875,159" style="fill:rgb(94,91,74)"/>
<polygon points="892,128 866,92 840,99" style="fill:rgb(125,117,104)"/>
<polygon points="828,69 825,40 804,39" style="fill:rgb(174,169,158)"/>
<polygon points="897,119 895,145 1024,0" style="fill:rgb(255,255,255)"/>
<polygon points="892,128 840,99 875,159" style="fill:rgb(114,108,92)"/>
<polygon points="172,634 210,593 171,570" style="fill:rgb(99,85,78)"/>
<polygon points="208,638 190,648 225,650" style="fill:rgb(104,95,93)"/>
<polygon points="225,650 190,648 261,664" style="fill:rgb(241,241,241)"/>
<polygon points="866,636 882,595 842,575" style="fill:rgb(151,151,138)"/>
<polygon points="895,145 892,128 875,159" style="fill:rgb(111,107,86)"/>
<polygon points="746,671 829,663 819,638" style="fill:rgb(89,78,60)"/>
<polygon points="819,638 849,644 842,575" style="fill:rgb(126,116,102)"/>
<polygon points="851,672 829,663 746,671" style="fill:rgb(87,79,63)"/>
<polygon points="141,605 137,580 0,697" style="fill:rgb(255,255,255)"/>
<polygon points="136,563 137,580 171,570" style="fill:rgb(100,89,82)"/>
<polygon points="830,34 825,40 856,45" style="fill:rgb(108,115,101)"/>
<polygon points="829,663 849,644 819,638" style="fill:rgb(120,110,95)"/>
<polygon points="872,634 886,597 882,595" style="fill:rgb(70,76,65)"/>
<polygon points="882,595 886,597 899,524" style="fill:rgb(84,92,81)"/>
<polygon points="142,600 172,634 171,570" style="fill:rgb(76,61,54)"/>
<polygon points="137,580 142,600 171,570" style="fill:rgb(86,74,69)"/>
<polygon points="892,128 893,101 866,92" style="fill:rgb(156,149,137)"/>
<polygon points="856,45 825,40 828,69" style="fill:rgb(178,174,164)"/>
<polygon points="895,145 897,119 892,128" style="fill:rgb(70,74,61)"/>
<polygon points="1024,700 889,422 896,473" style="fill:rgb(254,254,254)"/>
<polygon points="878,74 828,69 866,92" style="fill:rgb(143,133,120)"/>
<polygon points="825,40 830,34 804,39" style="fill:rgb(80,86,74)"/>
<polygon points="804,39 830,34 318,45" style="fill:rgb(254,254,254)"/>
<polygon points="866,664 866,636 849,644" style="fill:rgb(137,136,127)"/>
<polygon points="849,644 866,636 842,575" style="fill:rgb(145,139,127)"/>
<polygon points="137,580 141,605 142,600" style="fill:rgb(192,191,191)"/>
<polygon points="142,600 141,605 172,634" style="fill:rgb(133,129,126)"/>
<polygon points="866,664 872,634 866,636" style="fill:rgb(92,94,85)"/>
<polygon points="866,636 872,634 882,595" style="fill:rgb(104,110,100)"/>
<polygon points="897,119 893,101 892,128" style="fill:rgb(85,88,75)"/>
<polygon points="897,119 895,101 893,101" style="fill:rgb(199,201,197)"/>
<polygon points="890,81 878,74 866,92" style="fill:rgb(154,151,137)"/>
<polygon points="890,81 866,92 893,101" style="fill:rgb(153,149,137)"/>
<polygon points="878,74 856,45 828,69" style="fill:rgb(168,162,148)"/>
<polygon points="894,703 851,672 746,671" style="fill:rgb(253,253,253)"/>
<polygon points="829,663 851,672 849,644" style="fill:rgb(133,127,114)"/>
<polygon points="881,68 859,43 856,45" style="fill:rgb(73,82,68)"/>
<polygon points="856,45 859,43 830,34" style="fill:rgb(102,107,97)"/>
<polygon points="881,68 856,45 878,74" style="fill:rgb(112,121,104)"/>
<polygon points="895,101 890,81 893,101" style="fill:rgb(71,75,63)"/>
<polygon points="890,81 881,68 878,74" style="fill:rgb(100,106,91)"/>
<polygon points="851,672 866,664 849,644" style="fill:rgb(125,124,114)"/>
<polygon points="872,634 894,703 886,597" style="fill:rgb(253,253,253)"/>
<polygon points="510,703 894,703 664,674" style="fill:rgb(255,255,255)"/>
<polygon points="851,672 894,703 866,664" style="fill:rgb(252,252,252)"/>
<polygon points="866,664 894,703 872,634" style="fill:rgb(254,254,254)"/>
<polygon points="886,597 1024,700 899,524" style="fill:rgb(254,254,254)"/>
<polygon points="894,703 1020,703 886,597" style="fill:rgb(255,255,255)"/>
<polygon points="899,524 1024,700 896,473" style="fill:rgb(255,255,255)"/>
<polygon points="897,119 1024,0 895,101" style="fill:rgb(255,255,255)"/>
<polygon points="1020,703 1024,700 886,597" style="fill:rgb(254,254,254)"/>
<polygon points="0,697 137,580 136,563" style="fill:rgb(254,254,254)"/>
<polygon points="0,697 9,703 141,605" style="fill:rgb(255,255,255)"/>
<polygon points="141,605 9,703 172,634" style="fill:rgb(254,254,254)"/>
<polygon points="172,634 9,703 190,648" style="fill:rgb(255,255,255)"/>
<polygon points="190,648 9,703 261,664" style="fill:rgb(255,255,255)"/>
<polygon points="261,664 9,703 356,671" style="fill:rgb(255,255,255)"/>
<polygon points="0,697 136,563 130,521" style="fill:rgb(255,255,255)"/>
<polygon points="0,697 129,496 0,0" style="fill:rgb(255,255,255)"/>
<polygon points="1020,703 1024,703 1024,700" style="fill:rgb(5,5,5)"/>
<polygon points="0,0 223,166 226,124" style="fill:rgb(255,255,255)"/>
<polygon points="895,101 1024,0 890,81" style="fill:rgb(255,255,255)"/>
<polygon points="890,81 1024,0 881,68" style="fill:rgb(254,254,254)"/>
<polygon points="881,68 1024,0 859,43" style="fill:rgb(254,254,254)"/>
<polygon points="859,43 1024,0 830,34" style="fill:rgb(254,254,254)"/>
<polygon points="830,34 1024,0 318,45" style="fill:rgb(255,255,255)"/>
<polygon points="318,45 0,0 282,46" style="fill:rgb(254,254,254)"/>
<polygon points="1024,700 1024,0 889,422" style="fill:rgb(255,255,255)"/>
<polygon points="0,697 0,703 9,703" style="fill:rgb(29,29,29)"/>
<polygon points="250,64 0,0 228,101" style="fill:rgb(254,254,254)"/>
<polygon points="228,101 0,0 226,124" style="fill:rgb(255,255,255)"/>
<polygon points="282,46 0,0 250,64" style="fill:rgb(255,255,255)"/>
<polygon points="1024,0 0,0 318,45" style="fill:rgb(255,255,255)"/>
</svg>